<?xml version="1.0" encoding="UTF-8"?>
<svg id="Capa_1" data-name="Capa 1" xmlns="http://www.w3.org/2000/svg" viewBox="0 0 248.34 217.29">
  <defs>
    <style>
      .cls-1 {
        fill: #cdcdcd;
        stroke-width: 0px;
      }
    </style>
  </defs>
  <path class="cls-1" d="m0,31.04C0,13.92,13.92,0,31.04,0h186.25c17.12,0,31.04,13.92,31.04,31.04v155.21c0,17.12-13.92,31.04-31.04,31.04H31.04c-17.12,0-31.04-13.92-31.04-31.04V31.04Zm23.28,131.93v15.52c0,4.27,3.49,7.76,7.76,7.76h15.52c4.27,0,7.76-3.49,7.76-7.76v-15.52c0-4.27-3.49-7.76-7.76-7.76h-15.52c-4.27,0-7.76,3.49-7.76,7.76Zm178.49-7.76c-4.27,0-7.76,3.49-7.76,7.76v15.52c0,4.27,3.49,7.76,7.76,7.76h15.52c4.27,0,7.76-3.49,7.76-7.76v-15.52c0-4.27-3.49-7.76-7.76-7.76h-15.52ZM23.28,100.89v15.52c0,4.27,3.49,7.76,7.76,7.76h15.52c4.27,0,7.76-3.49,7.76-7.76v-15.52c0-4.27-3.49-7.76-7.76-7.76h-15.52c-4.27,0-7.76,3.49-7.76,7.76Zm178.49-7.76c-4.27,0-7.76,3.49-7.76,7.76v15.52c0,4.27,3.49,7.76,7.76,7.76h15.52c4.27,0,7.76-3.49,7.76-7.76v-15.52c0-4.27-3.49-7.76-7.76-7.76h-15.52ZM23.28,38.8v15.52c0,4.27,3.49,7.76,7.76,7.76h15.52c4.27,0,7.76-3.49,7.76-7.76v-15.52c0-4.27-3.49-7.76-7.76-7.76h-15.52c-4.27,0-7.76,3.49-7.76,7.76Zm178.49-7.76c-4.27,0-7.76,3.49-7.76,7.76v15.52c0,4.27,3.49,7.76,7.76,7.76h15.52c4.27,0,7.76-3.49,7.76-7.76v-15.52c0-4.27-3.49-7.76-7.76-7.76h-15.52Zm-124.17,15.52v31.04c0,8.59,6.94,15.52,15.52,15.52h62.08c8.59,0,15.52-6.94,15.52-15.52v-31.04c0-8.59-6.94-15.52-15.52-15.52h-62.08c-8.59,0-15.52,6.94-15.52,15.52Zm15.52,77.6c-8.59,0-15.52,6.94-15.52,15.52v31.04c0,8.59,6.94,15.52,15.52,15.52h62.08c8.59,0,15.52-6.94,15.52-15.52v-31.04c0-8.59-6.94-15.52-15.52-15.52h-62.08Z"/>
</svg>